<svg xmlns="http://www.w3.org/2000/svg" fill="#222" viewBox="0 0 1175 1175" width="1175" height="1175">
  <path
    d="M176.15 94h265c205.17 0 352.48 38.34 441.93 115.03 44.16 37.9 77.7 88.14 100.63 150.73 22.92 62.14 34.38 137.94 34.38 227.4 0 174.1-45 299.92-135.01 377.49C793.07 1042.22 645.76 1081 441.14 1081H176.15V94Zm314.47 811.15c97.28 0 210.84-24.24 252.2-72.72 41.38-48.48 62.06-130.45 62.06-245.92 0-114.59-20.68-196.12-62.05-244.6-40.81-48.04-154.37-72.06-252.2-72.06h-113.3v635.3h113.3Z" />
  <path
    d="M175.63 424.84h160.8c-27.72-40.73-93.22-139-133.38-206.27-79.94 3.94-135.25-24.96-151.05-86.7 0 268 106.43 201 123.63 292.97Zm666.59-.95h160.81c17.19-91.97 123.63-24.96 123.63-292.97-15.81 61.74-71.11 90.65-151.05 86.7-38.58 0-66.3-8.27-87.84 24.97-18.33 28.27-25.36 84.74-32.16 127.99l-13.4 53.3Z" />
  <path fill-rule="evenodd"
    d="m525.61 403.26 57.07 229.83 40.08-195.92L664.77 596h55.72v28h-77.28l-16.98-64.17-40.92 200.08-52.93-213.17-25.47 169.63-50.34-132.14L440.42 624H242v-28h179.58l35.84-88.23 37.66 98.86 30.53-203.37Z"/>
  <circle cx="721" cy="607" r="37" />
</svg>